<svg width="48" height="60" viewBox="0 0 48 60" fill="none" xmlns="http://www.w3.org/2000/svg">
<g clip-path="url(#clip0_138_1110)">
<rect width="48" height="60" fill="white"/>
<path d="M6.66811 14.4024L6.25765 14.6839C0.660073 18.5235 1.68546 27.0712 8.03234 29.4779L16.6824 32.758C18.036 33.2712 18.8714 34.6345 18.7143 36.0735C18.5688 37.4068 19.2762 38.6879 20.4821 39.275L27.2951 42.5914C29.1334 43.4863 31.2691 43.5414 33.151 42.7424C40.5975 39.5812 45.343 32.1764 45.1044 24.0901L44.6953 10.2205C44.5687 5.92688 40.6032 2.78366 36.394 3.64051L28.0384 5.34142C20.3802 6.90039 13.113 9.98165 6.66811 14.4024Z" stroke="black"/>
<circle cx="7" cy="21" r="0.85" stroke="#B5B5B5" stroke-width="0.3"/>
<circle cx="13" cy="25" r="0.85" stroke="#B5B5B5" stroke-width="0.3"/>
<circle cx="18" cy="21" r="0.85" stroke="#B5B5B5" stroke-width="0.3"/>
<circle cx="23" cy="17" r="0.85" stroke="#B5B5B5" stroke-width="0.3"/>
<circle cx="28" cy="13" r="0.85" stroke="#B5B5B5" stroke-width="0.3"/>
<circle cx="12" cy="17" r="0.85" stroke="#B5B5B5" stroke-width="0.3"/>
<circle cx="13.653" cy="19.6532" r="0.405428" transform="rotate(11.2645 13.653 19.6532)" stroke="#B5B5B5" stroke-width="0.3"/>
<circle cx="16.653" cy="18.6532" r="0.405428" transform="rotate(11.2645 16.653 18.6532)" stroke="#B5B5B5" stroke-width="0.3"/>
<circle cx="10" cy="7" r="0.85" stroke="#B5B5B5" stroke-width="0.3"/>
<circle cx="18" cy="13" r="0.85" stroke="#B5B5B5" stroke-width="0.3"/>
<circle cx="24" cy="10" r="0.85" stroke="#B5B5B5" stroke-width="0.3"/>
<circle cx="25.5219" cy="35.3986" r="2.5" transform="rotate(0.503111 25.5219 35.3986)" fill="black"/>
<circle cx="29.5668" cy="30.434" r="2.3" transform="rotate(0.503111 29.5668 30.434)" stroke="black" stroke-width="0.4"/>
<circle cx="34.6098" cy="25.4782" r="2.3" transform="rotate(0.503111 34.6098 25.4782)" stroke="black" stroke-width="0.4"/>
<circle cx="39.6528" cy="20.5219" r="2.3" transform="rotate(0.503111 39.6528 20.5219)" stroke="black" stroke-width="0.4"/>
<path d="M20.3076 56.3027C20.1299 56.1523 20.1162 55.9382 20.2666 55.6602L20.5811 55.0859C20.7314 54.8079 20.9753 54.7874 21.3125 55.0244C21.5951 55.2249 21.9141 55.389 22.2695 55.5166C22.625 55.6396 23.0215 55.7012 23.459 55.7012C24.0605 55.7012 24.4912 55.5394 24.751 55.2158C25.0107 54.8877 25.1406 54.5208 25.1406 54.1152C25.1406 53.7005 24.9857 53.3291 24.6758 53.001C24.3704 52.6683 23.9375 52.502 23.377 52.502H22.8506C22.5544 52.502 22.4062 52.3812 22.4062 52.1396V51.3877C22.4062 51.137 22.5544 51.0117 22.8506 51.0117H23.2607C23.68 51.0117 24.0492 50.8818 24.3682 50.6221C24.6917 50.3623 24.8535 50.0365 24.8535 49.6445C24.8535 49.3392 24.7464 49.0863 24.5322 48.8857C24.3226 48.6807 23.9785 48.5781 23.5 48.5781C23.0488 48.5781 22.6592 48.6442 22.3311 48.7764C22.0029 48.9085 21.7432 49.068 21.5518 49.2549C21.2783 49.5238 21.0436 49.5124 20.8477 49.2207L20.4512 48.6396C20.3008 48.4209 20.3464 48.1976 20.5879 47.9697C20.916 47.6553 21.3398 47.4229 21.8594 47.2725C22.3789 47.1221 22.887 47.0469 23.3838 47.0469C24.555 47.0469 25.4255 47.2816 25.9951 47.751C26.5648 48.2158 26.8496 48.7855 26.8496 49.46C26.8496 49.9613 26.6536 50.4193 26.2617 50.834C25.8698 51.2441 25.4551 51.5267 25.0176 51.6816V51.709C25.5371 51.8366 26.0293 52.1169 26.4941 52.5498C26.959 52.9782 27.1914 53.5114 27.1914 54.1494C27.1914 55.1475 26.877 55.9108 26.248 56.4395C25.6191 56.9681 24.6598 57.2324 23.3701 57.2324C22.8278 57.2324 22.265 57.1504 21.6816 56.9863C21.1029 56.8177 20.6449 56.5898 20.3076 56.3027Z" fill="black"/>
<circle cx="21.3226" cy="31.3227" r="0.85" transform="rotate(24.2786 21.3226 31.3227)" stroke="#B5B5B5" stroke-width="0.3"/>
<circle cx="22.735" cy="22.7347" r="0.405428" transform="rotate(24.2786 22.735 22.7347)" stroke="#B5B5B5" stroke-width="0.3"/>
<circle cx="20.4051" cy="28.405" r="0.85" transform="rotate(-38.4978 20.4051 28.405)" stroke="#B5B5B5" stroke-width="0.3"/>
<circle cx="24.4051" cy="24.405" r="0.85" transform="rotate(-38.4978 24.4051 24.405)" stroke="#B5B5B5" stroke-width="0.3"/>
<circle cx="28.4051" cy="21.405" r="0.85" transform="rotate(-38.4978 28.4051 21.405)" stroke="#B5B5B5" stroke-width="0.3"/>
<circle cx="32.4051" cy="18.405" r="0.85" transform="rotate(-38.4978 32.4051 18.405)" stroke="#B5B5B5" stroke-width="0.3"/>
</g>
<defs>
<clipPath id="clip0_138_1110">
<rect width="48" height="60" fill="white"/>
</clipPath>
</defs>
</svg>
