<svg width="48" height="60" viewBox="0 0 48 60" fill="none" xmlns="http://www.w3.org/2000/svg">
<g clip-path="url(#clip0_137_759)">
<rect width="48" height="60" fill="white"/>
<path d="M6.66811 14.4024L6.25765 14.6839C0.660073 18.5235 1.68546 27.0712 8.03234 29.4779L16.6824 32.758C18.036 33.2712 18.8714 34.6345 18.7143 36.0735C18.5688 37.4068 19.2762 38.6879 20.4821 39.275L27.2951 42.5914C29.1334 43.4863 31.2691 43.5414 33.151 42.7424C40.5975 39.5812 45.343 32.1764 45.1044 24.0901L44.6953 10.2205C44.5687 5.92688 40.6032 2.78366 36.394 3.64051L28.0384 5.34142C20.3802 6.90039 13.113 9.98165 6.66811 14.4024Z" stroke="black"/>
<circle cx="7" cy="21" r="0.85" stroke="#B5B5B5" stroke-width="0.3"/>
<circle cx="13" cy="25" r="0.85" stroke="#B5B5B5" stroke-width="0.3"/>
<circle cx="18" cy="21" r="0.85" stroke="#B5B5B5" stroke-width="0.3"/>
<circle cx="23" cy="17" r="0.85" stroke="#B5B5B5" stroke-width="0.3"/>
<circle cx="28" cy="13" r="0.85" stroke="#B5B5B5" stroke-width="0.3"/>
<circle cx="12" cy="17" r="0.85" stroke="#B5B5B5" stroke-width="0.3"/>
<circle cx="27.5" cy="34.5" r="1.5" fill="black"/>
<circle cx="25" cy="22" r="0.8" stroke="black" stroke-width="0.4"/>
<circle cx="23.5" cy="30.5" r="2.5" fill="black"/>
<circle cx="28.5" cy="25.5" r="2.5" fill="black"/>
<circle cx="33.5" cy="20.5" r="2.3" stroke="black" stroke-width="0.4"/>
<circle cx="38.5" cy="15.5" r="2.3" stroke="black" stroke-width="0.4"/>
<circle cx="13.653" cy="19.6532" r="0.405428" transform="rotate(11.2645 13.653 19.6532)" stroke="#B5B5B5" stroke-width="0.3"/>
<circle cx="16.653" cy="18.6532" r="0.405428" transform="rotate(11.2645 16.653 18.6532)" stroke="#B5B5B5" stroke-width="0.3"/>
<circle cx="10" cy="7" r="0.85" stroke="#B5B5B5" stroke-width="0.3"/>
<circle cx="18" cy="13" r="0.85" stroke="#B5B5B5" stroke-width="0.3"/>
<circle cx="24" cy="10" r="0.85" stroke="#B5B5B5" stroke-width="0.3"/>
<circle cx="32.4033" cy="35.7333" r="0.85" transform="rotate(-37.8654 32.4033 35.7333)" stroke="#B5B5B5" stroke-width="0.3"/>
<circle cx="34.5371" cy="33.6236" r="0.85" transform="rotate(-37.8654 34.5371 33.6236)" stroke="#B5B5B5" stroke-width="0.3"/>
<circle cx="36.6679" cy="31.513" r="0.85" transform="rotate(-37.8654 36.6679 31.513)" stroke="#B5B5B5" stroke-width="0.3"/>
<circle cx="38.8017" cy="29.4032" r="0.85" transform="rotate(-37.8654 38.8017 29.4032)" stroke="#B5B5B5" stroke-width="0.3"/>
<path d="M20.5127 57C20.1709 57 20 56.8519 20 56.5557V56.2275C20 55.9906 20.1094 55.7559 20.3281 55.5234L22.3721 53.3701C22.9873 52.7184 23.5501 52.1396 24.0605 51.6338C24.571 51.1234 24.8262 50.6084 24.8262 50.0889C24.8262 49.5693 24.6963 49.1888 24.4365 48.9473C24.1813 48.7012 23.8555 48.5781 23.459 48.5781C22.8301 48.5781 22.3926 48.724 22.1465 49.0156C21.9004 49.3073 21.7227 49.6195 21.6133 49.9521C21.5085 50.2757 21.3171 50.3919 21.0391 50.3008L20.3486 50.0684C20.1253 49.9909 20.0615 49.7767 20.1572 49.4258C20.335 48.7741 20.6973 48.2158 21.2441 47.751C21.791 47.2816 22.6022 47.0469 23.6777 47.0469C24.7988 47.0469 25.6123 47.3363 26.1182 47.915C26.624 48.4893 26.877 49.1136 26.877 49.7881C26.877 50.6722 26.5078 51.4492 25.7695 52.1191C25.0312 52.7845 24.3613 53.4339 23.7598 54.0674L22.5977 55.291V55.332C22.8711 55.3138 23.099 55.3047 23.2812 55.3047H26.4736C26.8154 55.3047 26.9863 55.4528 26.9863 55.749V56.5557C26.9863 56.8519 26.8154 57 26.4736 57H20.5127Z" fill="black"/>
</g>
<defs>
<clipPath id="clip0_137_759">
<rect width="48" height="60" fill="white"/>
</clipPath>
</defs>
</svg>
